<svg width="852" height="852" viewBox="0 0 852 852" fill="none" xmlns="http://www.w3.org/2000/svg">
<g clip-path="url(#clip0_59_8)">
<path d="M426 852C661.273 852 852 661.273 852 426C852 190.727 661.273 0 426 0C190.727 0 0 190.727 0 426C0 661.273 190.727 852 426 852Z" fill="#7B00EA"/>
<path fill-rule="evenodd" clip-rule="evenodd" d="M329.298 665.623L342.051 631.489L319.42 633.726L311.273 655.292C310.634 656.916 310.101 658.62 309.276 660.164C307.492 663.493 304.75 665.569 300.942 665.596C284.169 665.623 267.448 665.596 250.674 665.569C250.275 665.569 249.876 665.33 248.997 665.063L259.7 636.175C240.184 635.643 221.2 635.323 202.297 633.167C202.616 629.626 310.447 357.731 314.734 349.557C315.799 349.477 317.051 349.291 318.329 349.291H405.392C406.271 349.291 407.149 349.291 408.001 349.344C416.814 350.01 421.713 357.465 418.651 365.932C414.578 377.114 410.265 388.243 406.084 399.373L351.29 545.118C350.731 546.609 350.252 548.153 349.56 550.177C351.104 550.256 352.302 550.416 353.5 550.363C435.931 546.769 496.423 507.417 535.509 433.479C544.055 417.32 550.072 399.944 553.347 381.96C555.291 371.443 555.903 360.899 553.267 350.383C550.612 339.286 544.005 329.538 534.683 322.959C522.223 313.986 508.218 310.152 493.095 310.072H199.688C200.326 308.475 200.619 307.41 201.125 306.451L238.081 239.862C239.805 236.39 242.497 233.492 245.833 231.517C249.169 229.542 253.005 228.575 256.878 228.733H413.06L429.062 186.399H476.508C477.679 186.399 478.851 186.319 479.969 186.479C483.35 187.012 485.294 189.674 484.788 193.135C484.575 194.573 484.042 195.958 483.51 197.342C480.235 206.155 476.88 214.941 473.605 223.754C473.046 225.245 472.594 226.763 472.008 228.547H493.441C493.974 227.402 494.506 226.23 494.985 225.032L508.191 189.967C509.523 186.426 509.576 186.399 513.117 186.399C528.133 186.399 543.177 186.346 558.193 186.399C564.53 186.426 566.793 189.781 564.53 195.904C560.935 205.729 557.235 215.474 553.56 225.245C553.054 226.603 552.602 227.987 551.963 229.851C553.427 230.117 554.625 230.384 555.823 230.543C576.724 233.099 597.066 237.839 616.369 246.545C631.039 253.175 644.378 261.828 655.348 273.969C670.204 290.343 677.58 309.913 678.751 332.011C679.869 353.444 675.955 374.105 668.847 394.048C652.02 441.307 628.11 484.253 593.498 520.436C569.642 545.357 542.112 565.166 511.919 581.195C479.33 598.501 444.877 610.615 409.2 619.189C406.005 619.987 404.327 621.372 403.236 624.514C399.322 635.43 395.168 646.293 391.068 657.156C388.539 663.812 386.009 665.623 379.033 665.623H329.298V665.623Z" fill="white"/>
</g>
<defs>
<clipPath id="clip0_59_8">
<rect width="852" height="852" fill="white"/>
</clipPath>
</defs>
</svg>
