<svg width="40" height="40" viewBox="0 0 40 40" fill="none" xmlns="http://www.w3.org/2000/svg">
<g clip-path="url(#clip0_59_2)">
<path d="M20 40C31.0457 40 40 31.0457 40 20C40 8.9543 31.0457 0 20 0C8.9543 0 0 8.9543 0 20C0 31.0457 8.9543 40 20 40Z" fill="black"/>
<path fill-rule="evenodd" clip-rule="evenodd" d="M8.56425 27.1312C8.42175 27.0562 8.09549 26.8787 8.12674 26.4925L8.14675 13.4712C8.13754 13.3484 8.16661 13.2257 8.22996 13.1201C8.2933 13.0144 8.38781 12.931 8.5005 12.8812L11.3755 11.2025L13.6505 9.875L19.7055 6.34C19.7823 6.28127 19.8763 6.24962 19.973 6.25C20.0948 6.25401 20.213 6.29212 20.3142 6.36L24.4917 8.77C26.8117 10.1088 29.2117 11.4938 31.5767 12.8538C31.7755 12.95 31.8917 13.1738 31.8742 13.4288L31.8655 16.8688C31.858 19.9638 31.853 23.1075 31.8505 26.1475L31.8505 26.16C31.8488 26.1808 31.8483 26.2017 31.8492 26.2225L31.8492 26.2612C31.8542 26.43 31.8617 26.7762 31.5367 26.9325C30.2117 27.7237 28.8567 28.5275 27.5455 29.305L25.3742 30.5925C23.7217 31.5712 22.0392 32.57 20.4117 33.5362L20.3992 33.5437C20.2928 33.6047 20.1816 33.6569 20.0667 33.7L19.938 33.75L19.818 33.6787C18.6355 32.9937 17.433 32.2937 16.2717 31.6162L14.1017 30.3537L11.983 29.1212L8.64925 27.1812L8.64675 27.1812L8.64425 27.1787L8.56425 27.1312ZM19.5255 7.54375L15.823 9.70625C13.5779 11.015 11.3333 12.3246 9.08925 13.635L9.07675 20.9462L9.0705 25.7775L13.883 22.9625L13.883 20.7425C13.8885 19.3571 13.886 17.9716 13.8755 16.5862L13.8755 16.4912L13.9317 16.4137C13.9931 16.3313 14.0716 16.2631 14.1617 16.2137L14.1942 16.1937L14.1955 16.1937L15.7505 15.2875C16.313 14.9625 16.8942 14.625 17.463 14.2912L19.518 13.0975L19.5255 7.54375ZM24.7705 23.2375C23.7195 22.6334 22.6678 22.0305 21.6155 21.4287L19.9855 20.4925L15.2642 23.2525L19.993 26.0425L24.7705 23.2375ZM25.258 22.425L25.1692 16.9388L20.4592 14.195L20.4517 19.6687L25.258 22.425ZM30.908 25.6675L30.9317 13.5737L20.4642 7.53625L20.4605 13.1L22.5105 14.2937L23.7955 15.0425C24.4542 15.425 25.1355 15.8212 25.8042 16.2125C25.998 16.3037 26.1192 16.5262 26.1055 16.77L26.2067 22.9687L30.908 25.6675ZM9.5405 26.6L11.3767 27.67L13.4042 28.8512C15.3342 29.9712 17.623 31.3012 19.9842 32.6837C22.3757 31.2707 24.7657 29.8553 27.1542 28.4375L30.4367 26.4912L25.7142 23.785L20.2967 26.9662C20.2031 27.0265 20.0937 27.0576 19.9823 27.0553C19.871 27.0531 19.7629 27.0177 19.6717 26.9537L14.3267 23.8025L9.5405 26.6ZM19.518 14.1912C17.939 15.1114 16.359 16.0297 14.778 16.9462L14.778 22.4375L19.5142 19.67L19.518 14.1912Z" fill="url(#paint0_linear_59_2)"/>
</g>
<defs>
<linearGradient id="paint0_linear_59_2" x1="13.1248" y1="6.875" x2="28.7498" y2="35" gradientUnits="userSpaceOnUse">
<stop stop-color="#009689"/>
<stop offset="1" stop-color="#00302C"/>
</linearGradient>
<clipPath id="clip0_59_2">
<rect width="40" height="40" fill="white"/>
</clipPath>
</defs>
</svg>
