<svg width="838" height="838" viewBox="0 0 838 838" fill="none" xmlns="http://www.w3.org/2000/svg">
<g clip-path="url(#clip0_59_2)">
<path d="M419 838C650.407 838 838 650.407 838 419C838 187.593 650.407 0 419 0C187.593 0 0 187.593 0 419C0 650.407 187.593 838 419 838Z" fill="black"/>
<path fill-rule="evenodd" clip-rule="evenodd" d="M179.419 568.398C176.434 566.827 169.599 563.108 170.253 555.016L170.672 282.221C170.48 279.647 171.089 277.077 172.416 274.864C173.743 272.651 175.723 270.903 178.084 269.86L238.315 234.691L285.976 206.879L412.828 132.821C414.437 131.591 416.407 130.928 418.432 130.936C420.984 131.02 423.461 131.818 425.582 133.24L513.1 183.73C561.704 211.777 611.984 240.792 661.531 269.284C665.695 271.301 668.13 275.988 667.764 281.331L667.58 353.399C667.423 418.239 667.318 484.1 667.266 547.788L667.266 548.05C667.23 548.486 667.221 548.923 667.24 549.36L667.24 550.171C667.345 553.707 667.502 560.961 660.693 564.234C632.934 580.811 604.547 597.649 577.076 613.938L531.589 640.911C496.969 661.416 461.72 682.34 427.624 702.583L427.362 702.74C425.132 704.016 422.802 705.111 420.396 706.013L417.699 707.061L415.185 705.568C390.412 691.217 365.219 676.552 340.891 662.359L295.43 635.909L251.042 610.088L181.2 569.445L181.147 569.445L181.095 569.393L179.419 568.398ZM409.057 158.04L331.49 203.344C284.456 230.762 237.432 258.198 190.418 285.652L190.156 438.822L190.025 540.037L290.847 481.063L290.847 434.554C290.962 405.529 290.909 376.504 290.69 347.48L290.69 345.49L291.868 343.866C293.155 342.14 294.798 340.71 296.687 339.676L297.368 339.257L297.394 339.257L329.971 320.271C341.755 313.463 353.933 306.392 365.848 299.4L408.9 274.391L409.057 158.04ZM518.94 486.824C496.922 474.168 474.889 461.537 452.843 448.931L418.694 429.316L319.784 487.138L418.851 545.589L518.94 486.824ZM529.153 469.802L527.294 354.865L428.619 297.384L428.462 412.059L529.153 469.802ZM647.521 537.732L648.018 284.368L428.724 157.883L428.646 274.443L471.593 299.452L498.514 315.139C512.315 323.152 526.587 331.453 540.597 339.65C544.656 341.562 547.196 346.223 546.908 351.33L549.029 481.194L647.521 537.732ZM199.872 557.268L238.341 579.685L280.817 604.432C321.251 627.896 369.2 655.759 418.668 684.723C468.768 655.12 518.839 625.467 568.88 595.764L637.648 554.99L538.712 498.294L425.215 564.941C423.254 566.204 420.96 566.854 418.628 566.807C416.296 566.761 414.03 566.02 412.121 564.679L300.143 498.661L199.872 557.268ZM408.9 297.305C375.821 316.581 342.72 335.82 309.597 355.022L309.597 470.064L408.822 412.085L408.9 297.305Z" fill="url(#paint0_linear_59_2)"/>
</g>
<defs>
<linearGradient id="paint0_linear_59_2" x1="274.962" y1="144.03" x2="602.306" y2="733.248" gradientUnits="userSpaceOnUse">
<stop stop-color="#009689"/>
<stop offset="1" stop-color="#00302C"/>
</linearGradient>
<clipPath id="clip0_59_2">
<rect width="838" height="838" fill="white"/>
</clipPath>
</defs>
</svg>
